<svg width="640" height="480" viewBox="0 0 640 480" fill="none" xmlns="http://www.w3.org/2000/svg">
  <rect width="640" height="480" rx="32" fill="#F5F5F7"/>
  <circle cx="506" cy="88" r="32" fill="#30D158" fill-opacity="0.24"/>
  <circle cx="118" cy="386" r="40" fill="#0A84FF" fill-opacity="0.18"/>
  <rect x="88" y="82" width="268" height="340" rx="36" fill="#1C1C1E"/>
  <rect x="102" y="110" width="240" height="280" rx="24" fill="#0A84FF"/>
  <rect x="190" y="94" width="60" height="8" rx="4" fill="#6E6E73"/>
  <circle cx="222" cy="356" r="18" fill="#F5F5F7"/>
  <rect x="372" y="132" width="168" height="220" rx="24" fill="white"/>
  <rect x="392" y="160" width="128" height="14" rx="7" fill="#1C1C1E"/>
  <rect x="392" y="188" width="86" height="10" rx="5" fill="#6E6E73"/>
  <rect x="392" y="216" width="110" height="10" rx="5" fill="#6E6E73"/>
  <rect x="392" y="248" width="128" height="44" rx="16" fill="#30D158"/>
  <path d="M411 270L430 286L503 221" stroke="#0E4020" stroke-width="10" stroke-linecap="round" stroke-linejoin="round"/>
  <path d="M280 196C293.255 196 304 185.255 304 172C304 158.745 293.255 148 280 148C266.745 148 256 158.745 256 172C256 185.255 266.745 196 280 196Z" fill="#F5F5F7"/>
  <path d="M296 188L336 228" stroke="#F5F5F7" stroke-width="14" stroke-linecap="round"/>
  <rect x="32" y="36" width="576" height="408" rx="28" stroke="#E4E4E8" stroke-width="2"/>
</svg>
